<svg width="112" height="36" viewBox="0 0 112 36" fill="none" xmlns="http://www.w3.org/2000/svg">
<g clip-path="url(#clip0_13_84)">
<path d="M13.7933 0.00317383H14.7893C18.247 0.0771967 21.6483 1.44662 24.0913 3.87087C23.1893 4.77765 22.2684 5.64742 21.3852 6.5542C20.0134 5.33282 18.3597 4.38903 16.5557 4.05593C13.8872 3.50076 11.0121 4.00041 8.77583 5.49937C6.33288 7.07236 4.67919 9.73719 4.32214 12.5871C3.92751 15.3999 4.73557 18.3609 6.59597 20.5445C8.3812 22.6727 11.106 24.0051 13.9248 24.0976C16.5557 24.2457 19.2993 23.4499 21.2161 21.6364C22.7195 20.3595 23.4148 18.4164 23.6403 16.5288C20.5208 16.5288 17.4013 16.5473 14.2819 16.5288V12.7166H27.4174C28.0939 16.8064 27.1168 21.4143 23.9597 24.3382C21.855 26.4108 18.9423 27.6322 15.9731 27.8728C13.098 28.1504 10.1289 27.6137 7.57315 26.2443C4.51006 24.6343 2.06711 21.914 0.864427 18.7125C-0.26309 15.7701 -0.281882 12.439 0.770467 9.47811C1.72886 6.77627 3.57047 4.38903 5.93825 2.72352C8.21208 1.07651 10.9745 0.169725 13.7933 0.00317383Z" fill="#3780FF"/>
<path d="M89.149 0.965454H93.1705V27.3916C91.8362 27.3916 90.4832 27.4101 89.149 27.3731C89.1678 18.5829 89.149 9.77418 89.149 0.965454Z" fill="#38B137"/>
<path d="M36.3624 10.1258C38.843 9.66319 41.5302 10.1813 43.5785 11.6433C45.4389 12.9387 46.7356 14.9743 47.1302 17.195C47.6376 19.7673 46.9987 22.5802 45.3074 24.6158C43.4846 26.892 40.4966 28.1134 37.5839 27.9283C34.9154 27.7803 32.3221 26.4664 30.7436 24.3197C28.9584 21.951 28.5262 18.694 29.5034 15.9181C30.4805 12.9387 33.243 10.6625 36.3624 10.1258ZM36.9262 13.6419C35.9114 13.901 34.9718 14.4747 34.2953 15.2889C32.4725 17.4356 32.5852 20.9332 34.596 22.9318C35.7423 24.0791 37.4711 24.6158 39.0685 24.3012C40.553 24.0421 41.8497 23.0613 42.5638 21.7659C43.804 19.5638 43.447 16.5288 41.549 14.8078C40.3275 13.6974 38.5423 13.2348 36.9262 13.6419Z" fill="#FA3913"/>
<path d="M56.2819 10.1258C59.1195 9.58918 62.2201 10.3664 64.3436 12.328C67.8013 15.3815 68.1772 21.0997 65.2268 24.6158C63.4416 26.8365 60.5477 28.0579 57.6913 27.9284C54.9664 27.8543 52.2792 26.5219 50.6631 24.3197C48.8403 21.8955 48.4456 18.5645 49.4792 15.7331C50.5127 12.8462 53.2188 10.644 56.2819 10.1258ZM56.8456 13.6419C55.8309 13.901 54.8913 14.4747 54.2148 15.2704C52.4107 17.3801 52.4859 20.8222 54.4215 22.8393C55.5678 24.0422 57.353 24.6343 59.0067 24.3012C60.4725 24.0236 61.7879 23.0614 62.502 21.766C63.7235 19.5453 63.3664 16.5103 61.4497 14.7893C60.2282 13.6789 58.443 13.2348 56.8456 13.6419Z" fill="#FCBD06"/>
<path d="M73.1758 11.1991C75.3369 9.86673 78.2121 9.49662 80.5423 10.644C81.2752 10.9586 81.8765 11.4952 82.4591 12.0319C82.4779 11.5322 82.4591 11.0141 82.4779 10.4959C83.7369 10.5144 84.996 10.4959 86.2738 10.5144V26.8365C86.255 29.2977 85.6161 31.9071 83.8121 33.7021C81.8389 35.6822 78.8134 36.2929 76.0886 35.8858C73.1758 35.4602 70.6389 33.369 69.5114 30.7227C70.6389 30.186 71.8228 29.7604 72.9879 29.2607C73.6456 30.7782 74.9799 32.0736 76.6524 32.3697C78.3248 32.6658 80.2604 32.2587 81.3503 30.8892C82.5154 29.4828 82.5154 27.5582 82.4591 25.8372C81.5946 26.6699 80.5987 27.4102 79.396 27.6877C76.7839 28.4095 73.9087 27.5212 71.898 25.7817C69.8685 24.0421 68.6658 21.3588 68.7785 18.694C68.8349 15.6775 70.5638 12.7721 73.1758 11.1991ZM77.0658 13.5679C75.9195 13.7529 74.8483 14.3821 74.1154 15.2519C72.349 17.3245 72.349 20.6371 74.1342 22.6727C75.149 23.8756 76.7839 24.5418 78.3624 24.3752C79.847 24.2272 81.2188 23.3019 81.9517 22.025C83.192 19.8598 82.9852 16.9174 81.3128 15.0298C80.2792 13.864 78.6255 13.2903 77.0658 13.5679Z" fill="#3780FF"/>
<path d="M98 12.1429C100.255 10.0703 103.732 9.36703 106.626 10.4589C109.369 11.4767 111.117 14.049 112 16.6953C107.922 18.3608 103.863 20.0078 99.7852 21.6733C100.349 22.7282 101.213 23.6905 102.379 24.0791C104.013 24.6528 105.968 24.4492 107.34 23.3759C107.885 22.9687 108.317 22.4321 108.73 21.9139C109.764 22.5986 110.797 23.2648 111.831 23.9495C110.365 26.1147 107.903 27.6322 105.254 27.8728C102.322 28.2244 99.2027 27.114 97.3047 24.8563C94.1852 21.3032 94.4859 15.3444 98 12.1429ZM100.011 15.5665C99.3718 16.4732 99.1087 17.5836 99.1275 18.6754C101.852 17.5651 104.577 16.4547 107.302 15.3259C106.851 14.2896 105.761 13.6604 104.652 13.4938C102.867 13.1792 101.007 14.123 100.011 15.5665Z" fill="#FA3913"/>
</g>
<defs>
<clipPath id="clip0_13_84">
<rect width="112" height="36" fill="white"/>
</clipPath>
</defs>
</svg>
