<svg width="119" height="65" viewBox="0 0 119 65" fill="none" xmlns="http://www.w3.org/2000/svg">
<path d="M1.44055 43.7379L1.5785 44.2113C1.56083 44.1571 1.51037 43.9915 1.44055 43.7379ZM6.89945 33.0107C7.14169 30.4672 7.96431 29.0431 9.51451 27.5833C11.7326 25.6061 14.5032 26.7245 14.5032 26.7245V20.0897C15.1768 20.0678 15.8506 20.1185 16.5169 20.241V28.7794C16.5169 28.7794 13.747 27.6609 11.529 29.6391C9.97965 31.098 9.15535 32.5231 8.91395 35.0666C8.90638 36.4478 9.11077 38.2532 10.052 39.8143C9.81928 39.663 9.58208 39.4905 9.3404 39.297C7.26702 37.5314 6.88936 34.8826 6.89945 33.0107ZM27.957 7.82186C26.4312 5.70157 25.8542 3.56084 25.6456 2.05701H27.565C27.565 2.05701 27.1823 6.00009 29.9715 9.87774L30.0102 9.92987C29.2585 9.33023 28.5691 8.62244 27.957 7.82186ZM37.2035 13.8331V22.1997C37.2035 22.1997 34.7541 22.0781 32.9415 21.4933C30.4106 20.6755 28.7838 19.4211 28.7838 19.4211C28.7838 19.4211 27.6601 18.5265 27.5693 18.4642V35.7413C27.5693 36.7033 27.3615 39.1058 26.7281 41.1095C25.9013 43.7308 24.6253 45.4513 24.3906 45.803C24.3906 45.803 22.8388 48.1288 20.1009 49.695C17.633 51.1078 15.4663 51.072 14.8186 51.1078C14.8186 51.1078 11.0731 51.2959 7.70273 48.5183C6.9739 47.906 6.29358 47.2126 5.67057 46.4471L5.68739 46.4624C9.05862 49.24 12.8033 49.0519 12.8033 49.0519C13.4518 49.0161 15.6186 49.0519 18.0856 47.6391C20.8209 46.0729 22.3753 43.7471 22.3753 43.7471C22.6075 43.3954 23.8893 41.6749 24.7128 39.0526C25.3445 37.0499 25.5539 34.6464 25.5539 33.6844V16.4093C25.6448 16.4727 26.7677 17.3672 26.7677 17.3672C26.7677 17.3672 28.3952 18.6226 30.9262 19.4395C32.7396 20.0242 35.1882 20.1459 35.1882 20.1459V13.5898C36.0259 13.828 36.74 13.8924 37.2035 13.8331Z" fill="#EE1D52"/>
<path d="M35.1892 13.5898V20.1439C35.1892 20.1439 32.7407 20.0222 30.9272 19.4375C28.3963 18.6196 26.7687 17.3652 26.7687 17.3652C26.7687 17.3652 25.6458 16.4707 25.555 16.4073V33.6866C25.555 34.6486 25.3472 37.0521 24.7138 39.0548C23.887 41.677 22.611 43.3976 22.3763 43.7493C22.3763 43.7493 20.8236 46.075 18.0866 47.6412C15.6196 49.0541 13.4528 49.0183 12.8043 49.0541C12.8043 49.0541 9.05963 49.2422 5.6884 46.4646L5.67158 46.4492C5.31565 46.0122 4.98061 45.5507 4.66811 45.067C3.59231 43.4037 2.93287 41.4368 2.76717 40.8755C2.76688 40.8732 2.76688 40.8707 2.76717 40.8684C2.50053 39.8931 1.94034 37.5509 2.01688 35.2824C2.1523 31.28 3.26259 28.8234 3.55614 28.208C4.3336 26.5297 5.34477 25.0281 6.54466 23.7701C7.6035 22.6845 8.80365 21.8207 10.0959 21.2143C11.4929 20.5022 12.9888 20.1205 14.5034 20.0897V26.7246C14.5034 26.7246 11.7327 25.6102 9.51552 27.5833C7.96533 29.0432 7.1427 30.4673 6.90046 33.0108C6.89037 34.8827 7.26803 37.5315 9.33973 39.2981C9.58141 39.4923 9.81861 39.6648 10.0513 39.8154C10.4132 40.412 10.8538 40.9318 11.3551 41.354C13.3788 42.9784 15.0745 43.0919 17.2429 42.0369C18.6888 41.3315 19.7773 39.7418 20.2819 37.9803C20.599 36.8803 20.5948 35.7731 20.5948 34.6281V2.05701H25.6416C25.8502 3.56084 26.4272 5.70158 27.953 7.82187C28.5651 8.62245 29.2545 9.33025 30.0062 9.92989C30.2282 10.2213 31.3638 11.6617 32.8214 12.546C33.5752 13.0031 34.3696 13.3533 35.1892 13.5898Z" fill="black"/>
<path d="M0.758545 38.838V38.8431L0.883057 39.2736C0.868755 39.2235 0.822484 39.0711 0.758545 38.838Z" fill="#69C9D0"/>
<path d="M10.0959 21.2142C8.80362 21.8206 7.60346 22.6844 6.54463 23.77C5.34435 25.0308 4.33343 26.5356 3.55695 28.2171C3.2634 28.8305 2.15311 31.2891 2.01769 35.2915C1.94115 37.5601 2.50134 39.9022 2.76797 40.8775C2.76769 40.8799 2.76769 40.8823 2.76797 40.8847C2.9362 41.4408 3.59312 43.4078 4.66892 45.0762C4.98142 45.5598 5.31645 46.0213 5.67238 46.4584C4.53198 45.4998 3.51491 44.3408 2.65442 43.0193C1.58787 41.3703 0.930113 39.4238 0.758523 38.8492C0.758321 38.8451 0.758321 38.841 0.758523 38.837V38.8298C0.491045 37.8555 -0.0708261 35.5124 0.00739863 33.2408C0.14282 29.2384 1.25311 26.7817 1.54666 26.1663C2.32291 24.4846 3.33386 22.9798 4.53434 21.7192C5.59295 20.6332 6.79316 19.7694 8.08557 19.1634C8.89171 18.7569 9.7315 18.4569 10.5904 18.2688C11.8849 17.9942 13.207 17.9704 14.5076 18.1983V20.0896C12.9915 20.1197 11.4941 20.5014 10.0959 21.2142Z" fill="#69C9D0"/>
<path d="M25.6457 2.05691H20.599V34.6291C20.599 35.7741 20.599 36.8782 20.2861 37.9813C19.7763 39.7417 18.6921 41.3314 17.2471 42.0368C15.0778 43.096 13.3821 42.9784 11.3592 41.3539C10.8571 40.9337 10.4154 40.4156 10.0521 39.8204C11.7756 40.9378 13.3182 40.9184 15.2292 39.9861C16.6734 39.2807 17.7593 37.6909 18.2674 35.9295C18.5853 34.8295 18.5811 33.7223 18.5811 32.5783V0H25.5498C25.5498 0 25.4716 0.809679 25.6457 2.05691ZM35.1891 11.7771V13.5897C34.371 13.3529 33.5779 13.0027 32.8255 12.5459C31.3679 11.6616 30.2323 10.2212 30.0103 9.92981C30.268 10.1354 30.5353 10.3225 30.811 10.49C32.5833 11.5655 34.3286 11.8865 35.1891 11.7771Z" fill="#69C9D0"/>
<path d="M93.1934 32.7087C93.1927 33.0743 93.2371 33.438 93.3253 33.7875C93.3297 33.8122 93.3358 33.8364 93.3438 33.8597C93.5545 34.6865 93.9775 35.4097 94.5509 35.9231C95.1243 36.4366 95.8179 36.7134 96.5301 36.713V40.815C94.8868 40.815 93.7104 40.8855 91.9142 39.5983C89.8779 38.13 88.7305 35.445 88.7305 32.6574C88.7305 29.7817 90.015 26.9011 92.1924 25.513C93.775 24.5063 94.9739 24.4999 96.5341 24.4999V28.6003C95.6488 28.6003 94.7997 29.0277 94.1737 29.7886C93.5477 30.5495 93.1961 31.5814 93.1961 32.6574L93.1934 32.7087Z" fill="#69C9D0"/>
<path d="M99.8932 32.7087C99.8934 33.0743 99.8489 33.4378 99.7613 33.7875C99.7613 33.8116 99.7495 33.8356 99.7429 33.8597C99.5318 34.6863 99.1086 35.4091 98.5353 35.9225C97.962 36.4359 97.2686 36.7129 96.5565 36.713V40.815C98.1985 40.815 99.3762 40.8855 101.166 39.5983C103.209 38.13 104.359 35.445 104.359 32.6574C104.359 29.7817 103.074 26.9011 100.897 25.513C99.3143 24.5063 98.1154 24.4999 96.5565 24.4999V28.6003C97.4416 28.6007 98.2903 29.0284 98.916 29.7892C99.5417 30.55 99.8932 31.5817 99.8932 32.6574V32.7087Z" fill="#EE1D52"/>
<path d="M44.8796 20.7793H57.2387L56.0965 24.9118H52.8574V40.7283H48.8837V24.9118H44.8796V20.7793ZM77.6335 20.7793V24.9118H81.6376V40.7283H85.6166V24.9118H88.8505L89.9926 20.7793H77.6335ZM59.9278 25.4888C60.3087 25.4885 60.6809 25.3509 60.9974 25.0935C61.3139 24.8361 61.5605 24.4704 61.706 24.0426C61.8515 23.6149 61.8894 23.1443 61.8148 22.6903C61.7402 22.2364 61.5566 21.8196 61.2871 21.4925C61.0177 21.1654 60.6744 20.9428 60.3009 20.8528C59.9273 20.7628 59.5402 20.8095 59.1884 20.9869C58.8367 21.1643 58.5361 21.4646 58.3248 21.8496C58.1134 22.2346 58.0007 22.6872 58.001 23.1501C58.001 23.4575 58.0508 23.7619 58.1477 24.0458C58.2446 24.3298 58.3865 24.5878 58.5655 24.805C58.7445 25.0222 58.9569 25.1944 59.1907 25.3117C59.4244 25.4291 59.6749 25.4893 59.9278 25.4888ZM58.001 40.7283H61.9022V27.1431H58.001V40.7283ZM75.9375 25.3702H71.3742L67.4414 30.1503V20.7953H63.5653L63.5534 40.7283H67.4664V35.5347L68.6838 34.1866L72.4821 40.7219H76.6655L71.1632 31.165L75.9375 25.3702ZM113.363 31.1682L118.133 25.3702H113.571L109.637 30.1503V20.7953H105.762L105.744 40.7283H109.658V35.5347L110.887 34.1866L114.686 40.7219H118.87L113.363 31.1682ZM103.332 32.6541C103.332 37.1585 100.286 40.8116 96.5302 40.8116C92.7741 40.8116 89.7288 37.1585 89.7288 32.6541C89.7288 28.1498 92.7741 24.4966 96.5302 24.4966C100.286 24.4966 103.332 28.1514 103.332 32.6573V32.6541ZM99.8669 32.6541C99.8669 31.852 99.6712 31.0679 99.3046 30.401C98.9379 29.7341 98.4168 29.2143 97.8071 28.9073C97.1974 28.6004 96.5265 28.52 95.8792 28.6765C95.232 28.833 94.6374 29.2193 94.1708 29.7864C93.7041 30.3536 93.3863 31.0762 93.2576 31.8629C93.1288 32.6496 93.1949 33.465 93.4475 34.2061C93.7 34.9471 94.1277 35.5805 94.6764 36.0262C95.2251 36.4718 95.8702 36.7096 96.5302 36.7096C97.4147 36.7096 98.263 36.2828 98.8887 35.5229C99.5143 34.7631 99.8662 33.7324 99.8669 32.6573V32.6541Z" fill="black"/>
</svg>
