<svg width="117" height="41" viewBox="0 0 117 41" fill="none" xmlns="http://www.w3.org/2000/svg">
<path d="M40.4764 20.5272L44.8201 12.2565H48.521V12.4234L41.9957 24.0071V32.2778H38.9181V24.0071L32.6265 12.4234V12.2565H36.2885L40.4764 20.5272ZM59.6238 28.5119H51.0727L49.6703 32.2778H46.3394L53.6634 12.2804H57.0331L64.3571 32.2778H60.9873L59.6238 28.5119ZM55.3385 16.4753L52.2999 24.9843H58.3772L55.3385 16.4753ZM75.5962 17.095C74.6807 15.6411 73.2393 14.8069 71.72 14.8545C69.441 14.8545 68.3307 16.0225 68.3307 17.5002C68.3307 19.2402 70.0059 19.7407 71.9732 20.0267C75.3819 20.5511 78.5569 21.6236 78.5569 26.3906C78.5569 30.8477 75.343 32.7545 71.681 32.7545C68.3502 32.7545 65.779 31.4913 64.5519 27.8445L67.123 26.2238C67.9801 28.3451 69.8111 29.6083 71.72 29.3938C73.6678 29.3938 75.4793 28.5596 75.4793 26.3906C75.4793 24.5077 73.8626 23.7449 71.7005 23.4351C68.3697 22.9584 65.2726 21.862 65.2726 17.381C65.2726 13.2576 68.5839 11.5892 71.6031 11.5415C74.1548 11.5415 76.7844 12.4234 78.031 15.5219L75.5962 17.095ZM91.0427 17.095C90.1272 15.6411 88.6858 14.8069 87.1664 14.8545C84.8875 14.8545 83.7772 16.0225 83.7772 17.5002C83.7772 19.2402 85.4523 19.7407 87.4197 20.0267C90.8284 20.5511 94.0034 21.6236 94.0034 26.3906C94.0034 30.8477 90.7895 32.7545 87.1275 32.7545C83.7967 32.7545 81.2255 31.4913 79.9983 27.8445L82.5695 26.2238C83.4266 28.3451 85.2575 29.6083 87.1664 29.3938C89.1143 29.3938 90.9258 28.5596 90.9258 26.3906C90.9258 24.5077 89.3091 23.7449 87.147 23.4351C83.8161 22.9584 80.719 21.862 80.719 17.381C80.719 13.2576 84.0304 11.5892 87.0496 11.5415C89.6013 11.5415 92.2309 12.4234 93.4775 15.5219L91.0427 17.095ZM96.3993 32.2778V12.2804H99.4574V32.2778H96.3993ZM116.871 32.2778H113.209L108.437 25.5802H105.476V32.2778H102.399V12.2327C104.989 12.2327 107.58 12.2565 110.171 12.2565C114.027 12.2804 116.053 15.4266 116.053 18.8826C116.228 21.9812 114.436 24.7222 111.924 25.175L116.871 32.0156V32.2778ZM105.476 15.7841V22.1957H110.171C111.612 22.3148 112.878 20.9801 112.976 19.2163C113.073 17.4525 111.982 15.9033 110.541 15.7841C110.424 15.7841 110.287 15.7841 110.171 15.7841H105.476ZM15.8166 33.0167C14.8232 33.4457 13.7324 33.4457 12.7584 33.0167L0.0194702 27.344V34.0177L12.7584 39.6904C13.7518 40.1195 14.8426 40.1195 15.8166 39.6904L28.5555 34.0177V27.344L15.8166 33.0167Z" fill="#171717"/>
<path d="M16.1477 1.22112C15.4659 -0.0421279 14.0635 -0.375819 13.0311 0.458401C12.7779 0.64908 12.5831 0.911266 12.4078 1.22112L0 24.0072L12.7389 29.6799C13.7323 30.109 14.8231 30.109 15.7971 29.6799L28.536 24.0072L16.1477 1.22112Z" fill="url(#paint0_linear_17_112)"/>
<defs>
<linearGradient id="paint0_linear_17_112" x1="14.9391" y1="26.5978" x2="6.95494" y2="-1.71206" gradientUnits="userSpaceOnUse">
<stop stop-color="#FF8500"/>
<stop offset="1" stop-color="#FEB60F"/>
</linearGradient>
</defs>
</svg>
