<svg width="149" height="32" viewBox="0 0 149 32" fill="none" xmlns="http://www.w3.org/2000/svg">
<g clip-path="url(#clip0_13_93)">
<path d="M149 14.4769V11.8423H145.746V7.74632L145.636 7.78023L142.58 8.72048L142.52 8.73889V11.8424H137.696V10.1135C137.696 9.30843 137.875 8.69237 138.228 8.28151C138.578 7.87559 139.079 7.66922 139.718 7.66922C140.178 7.66922 140.654 7.77805 141.132 7.99268L141.253 8.04659V5.27191L141.196 5.25105C140.749 5.0896 140.142 5.0083 139.389 5.0083C138.44 5.0083 137.577 5.21597 136.825 5.62755C136.073 6.03971 135.481 6.6281 135.066 7.37618C134.653 8.1234 134.443 8.98642 134.443 9.94145V11.8423H132.177V14.4769H134.443V25.5764H137.696V14.4769H142.52V21.5304C142.52 24.4354 143.883 25.9075 146.57 25.9075C147.012 25.9075 147.477 25.8555 147.951 25.7536C148.435 25.649 148.764 25.5445 148.957 25.4329L149 25.4074V22.7484L148.868 22.8363C148.691 22.9546 148.471 23.0513 148.214 23.1231C147.955 23.1963 147.739 23.233 147.571 23.233C146.942 23.233 146.476 23.0624 146.187 22.7258C145.894 22.3861 145.746 21.792 145.746 20.961V14.4769H149ZM124.913 23.2334C123.733 23.2334 122.802 22.8398 122.146 22.0645C121.486 21.2852 121.151 20.1743 121.151 18.7627C121.151 17.3064 121.486 16.1666 122.146 15.3736C122.803 14.5858 123.724 14.1859 124.887 14.1859C126.015 14.1859 126.912 14.5678 127.556 15.3215C128.202 16.0792 128.53 17.2099 128.53 18.6832C128.53 20.1746 128.221 21.3202 127.613 22.0865C127.009 22.8471 126.101 23.2334 124.913 23.2334ZM125.058 11.5114C122.805 11.5114 121.016 12.175 119.741 13.4838C118.466 14.7927 117.82 16.6041 117.82 18.8681C117.82 21.0184 118.451 22.7481 119.695 24.0082C120.94 25.2687 122.633 25.9072 124.729 25.9072C126.912 25.9072 128.665 25.2344 129.94 23.9075C131.215 22.582 131.861 20.7877 131.861 18.5766C131.861 16.3927 131.255 14.6501 130.059 13.3984C128.863 12.1462 127.18 11.5114 125.058 11.5114ZM112.575 11.5114C111.043 11.5114 109.776 11.9054 108.808 12.6824C107.834 13.4639 107.34 14.489 107.34 15.7294C107.34 16.3741 107.446 16.9468 107.656 17.4326C107.867 17.92 108.194 18.3491 108.628 18.7092C109.059 19.0665 109.724 19.4407 110.605 19.8214C111.346 20.1279 111.899 20.3872 112.249 20.5915C112.593 20.7918 112.836 20.9931 112.973 21.1892C113.107 21.381 113.175 21.6436 113.175 21.9677C113.175 22.8904 112.488 23.3394 111.073 23.3394C110.549 23.3394 109.951 23.2292 109.295 23.0121C108.645 22.7983 108.03 22.4852 107.474 22.0838L107.339 21.9864V25.1351L107.389 25.1583C107.849 25.3719 108.429 25.552 109.113 25.6938C109.796 25.8356 110.416 25.9078 110.955 25.9078C112.617 25.9078 113.956 25.5119 114.933 24.7303C115.916 23.9434 116.415 22.8942 116.415 21.6109C116.415 20.6851 116.146 19.8912 115.618 19.251C115.093 18.6159 114.181 18.0329 112.91 17.5176C111.898 17.1089 111.249 16.7696 110.981 16.5092C110.723 16.2576 110.592 15.9018 110.592 15.4512C110.592 15.0518 110.754 14.7319 111.086 14.4727C111.42 14.2123 111.886 14.0799 112.47 14.0799C113.012 14.0799 113.566 14.1659 114.118 14.3346C114.669 14.5033 115.153 14.7292 115.557 15.0056L115.69 15.0969V12.1101L115.639 12.088C115.266 11.9273 114.775 11.7898 114.178 11.6782C113.583 11.5673 113.044 11.5114 112.575 11.5114ZM98.8598 23.2334C97.6795 23.2334 96.7484 22.8398 96.0926 22.0645C95.4324 21.2852 95.0986 20.1746 95.0986 18.7627C95.0986 17.3064 95.4329 16.1666 96.0933 15.3736C96.7491 14.5858 97.6709 14.1859 98.8338 14.1859C99.9612 14.1859 100.859 14.5678 101.502 15.3215C102.149 16.0792 102.477 17.2099 102.477 18.6832C102.477 20.1746 102.168 21.3202 101.56 22.0865C100.956 22.8471 100.048 23.2334 98.8598 23.2334ZM99.0048 11.5114C96.7519 11.5114 94.9627 12.175 93.6878 13.4838C92.4131 14.7927 91.7663 16.6041 91.7663 18.8681C91.7663 21.0193 92.3977 22.7481 93.6421 24.0082C94.8866 25.2687 96.58 25.9072 98.6753 25.9072C100.858 25.9072 102.612 25.2344 103.887 23.9075C105.162 22.582 105.808 20.7877 105.808 18.5766C105.808 16.3927 105.202 14.6501 104.006 13.3984C102.809 12.1462 101.126 11.5114 99.0048 11.5114ZM86.8288 14.2207V11.8423H83.6157V25.5761H86.8288V18.5507C86.8288 17.3561 87.0982 16.3747 87.6298 15.6334C88.1546 14.901 88.8539 14.5298 89.7078 14.5298C89.9972 14.5298 90.3221 14.5778 90.6739 14.6727C91.0222 14.7671 91.2744 14.8695 91.4231 14.9774L91.5582 15.0758V11.8188L91.5062 11.7963C91.2069 11.6685 90.7836 11.604 90.248 11.604C89.4406 11.604 88.718 11.8649 88.0991 12.3785C87.5558 12.8299 87.1632 13.4489 86.863 14.2207H86.8288ZM77.8617 11.5114C76.3876 11.5114 75.0728 11.8292 73.9544 12.4557C72.8338 13.0837 71.9671 13.9801 71.3774 15.1201C70.7904 16.2573 70.4923 17.5857 70.4923 19.0671C70.4923 20.3647 70.7813 21.5555 71.3525 22.605C71.924 23.6563 72.7329 24.4787 73.7568 25.0492C74.7793 25.6188 75.9611 25.9077 77.2696 25.9077C78.7966 25.9077 80.1003 25.6007 81.1455 24.9954L81.1878 24.971V22.0113L81.0527 22.1104C80.5792 22.4572 80.0501 22.734 79.4808 22.9334C78.9129 23.1327 78.3951 23.2334 77.9411 23.2334C76.6803 23.2334 75.6682 22.8368 74.9336 22.0548C74.1973 21.2718 73.824 20.1722 73.824 18.7887C73.824 17.3964 74.2133 16.2686 74.9805 15.4365C75.7455 14.6068 76.7595 14.1859 77.9941 14.1859C79.0502 14.1859 80.0794 14.5455 81.053 15.2556L81.1878 15.354V12.2354L81.1442 12.2108C80.7778 12.0046 80.2781 11.8343 79.6578 11.7052C79.04 11.5763 78.4358 11.5114 77.8617 11.5114ZM68.2794 11.8424H65.0663V25.5761H68.2794V11.8424ZM66.7057 5.99174C66.1769 5.99174 65.7156 6.17275 65.3367 6.53143C64.9562 6.89113 64.7632 7.34401 64.7632 7.87848C64.7632 8.40455 64.9539 8.84917 65.3308 9.19931C65.7053 9.54842 66.1679 9.72537 66.7058 9.72537C67.2436 9.72537 67.708 9.54842 68.087 9.19989C68.4683 8.84917 68.6618 8.4047 68.6618 7.87848C68.6618 7.36271 68.4735 6.91446 68.1027 6.54593C67.7321 6.17811 67.2619 5.99174 66.7057 5.99174ZM58.6889 10.8291V25.5761H61.968V6.41216H57.4295L51.6609 20.6466L46.0628 6.41216H41.3396V25.5759H44.4211V10.8277H44.5269L50.4384 25.5761H52.7639L58.5831 10.8291H58.6889Z" fill="#706D6E"/>
<path d="M15.1153 15.2059H0V0.00817871H15.1153V15.2059Z" fill="#F1511B"/>
<path d="M31.8042 15.2059H16.6892V0.00817871H31.8042V15.2059Z" fill="#80CC28"/>
<path d="M15.1148 31.9917H0V16.7942H15.1148V31.9917Z" fill="#00ADEF"/>
<path d="M31.8042 31.9917H16.6892V16.7942H31.8042V31.9917Z" fill="#FBBC09"/>
</g>
<defs>
<clipPath id="clip0_13_93">
<rect width="149" height="32" fill="white"/>
</clipPath>
</defs>
</svg>
