<svg width="135" height="23" viewBox="0 0 135 23" fill="none" xmlns="http://www.w3.org/2000/svg">
<g clip-path="url(#clip0_13_79)">
<path d="M115.334 8.74005V22.0127H118.724V13.1643H131.125V22.0127H134.516V8.74005H115.334ZM118.337 4.43704H131.415C133.256 4.0128 134.564 1.9522 134.952 0.0128174H114.801C115.188 1.9522 116.545 3.95219 118.337 4.43704ZM105.016 22.0127C106.712 21.1036 107.632 19.5279 108.019 17.7097H92.761V0.0734231H89.3219V22.0127H105.016ZM63.8913 4.37643H76.0011C77.8418 3.70977 79.3434 1.9522 79.7309 0.0734231H60.549V13.0431H76.2433V17.5885H63.9397C62.0022 18.2551 60.3552 19.8915 59.5318 22.0127H79.634V8.74005H63.9397L63.8913 4.37643ZM34.0528 4.43704H47.1313C48.972 4.0128 50.3283 1.9522 50.6674 0.0128174H30.4683C30.8558 1.9522 32.2121 3.95219 34.0528 4.43704ZM34.0528 13.1037H47.1313C48.972 12.6794 50.3283 10.6188 50.6674 8.67944H30.4683C30.8558 10.6188 32.2121 12.6188 34.0528 13.1037ZM34.0528 22.0127H47.1313C48.972 21.5885 50.3283 19.5279 50.6674 17.5885H30.4683C30.8558 19.5279 32.2121 21.5885 34.0528 22.0127Z" fill="#5E5E5E"/>
<path d="M0 0.0734231C0.387513 2.01281 1.74381 3.95219 3.53606 4.43704H9.05813L9.34876 4.55825V21.9521H12.7879V4.55825L13.0786 4.43704H18.6006C20.4413 3.83098 21.7492 2.01281 22.1367 0.0734231V0.0128174L0 0.0734231Z" fill="#5E5E5E"/>
</g>
<defs>
<clipPath id="clip0_13_79">
<rect width="135" height="22.0256" fill="white"/>
</clipPath>
</defs>
</svg>
