<svg width="128" height="48" viewBox="0 0 128 48" fill="none" xmlns="http://www.w3.org/2000/svg">
<path d="M19.1952 0C8.59421 0 0 10.6829 0 23.8607C0 37.0398 8.59421 47.7222 19.1952 47.7222C29.7967 47.7222 38.3904 37.0398 38.3904 23.8607C38.3904 10.6837 29.7971 0.00113885 19.195 0.00113885L19.1952 0V0ZM27.998 34.4139C27.6533 35.1168 26.9166 35.3371 26.3529 34.9088C21.8454 31.4843 16.1718 30.7107 9.4902 32.608C8.84634 32.7915 8.20453 32.2898 8.05785 31.4897C7.91046 30.6893 8.31226 29.8915 8.95774 29.7091C16.2697 27.6311 22.5417 28.5255 27.6012 32.3687C28.1651 32.7989 28.3439 33.7136 27.9978 34.4145L27.998 34.4139V34.4139ZM30.3475 27.9178C29.9133 28.7934 28.9923 29.0681 28.2889 28.5304C23.1304 24.5887 15.2644 23.4469 9.16152 25.7498C8.37003 26.0469 7.53408 25.4925 7.29386 24.5103C7.05548 23.5264 7.50177 22.4893 8.29187 22.1901C15.263 19.5608 23.9292 20.8344 29.8544 25.3605C30.5581 25.8991 30.7804 27.0445 30.3472 27.9181L30.3475 27.9178ZM30.5492 21.1524C24.3617 16.5847 14.1556 16.1647 8.24899 18.3931C7.30051 18.7507 6.29746 18.0851 6.01002 16.9061C5.72258 15.7265 6.25757 14.4804 7.20675 14.122C13.9872 11.5633 25.2589 12.0577 32.3815 17.3138C33.2346 17.9432 33.5145 19.3129 33.0089 20.372C32.5046 21.4325 31.3998 21.7821 30.5494 21.1524H30.5492V21.1524ZM52.2238 22.0277C48.9096 21.0453 48.3196 20.3557 48.3196 18.9068C48.3196 17.538 49.3563 16.6169 50.898 16.6169C52.3925 16.6169 53.8744 17.3164 55.428 18.7564C55.475 18.8 55.5339 18.8174 55.5919 18.806C55.6499 18.7952 55.7012 18.7556 55.7352 18.696L57.3534 15.8604C57.4199 15.7435 57.4018 15.5826 57.3122 15.4934C55.4631 13.649 53.3809 12.7523 50.9471 12.7523C47.3686 12.7523 44.869 15.4219 44.869 19.2414C44.869 23.3372 47.0252 24.7875 50.7513 25.907C53.9228 26.8151 54.458 27.5759 54.458 28.9358C54.458 30.4428 53.3756 31.3797 51.6338 31.3797C49.6992 31.3797 48.1213 30.5696 46.3561 28.6694C46.3124 28.6224 46.2523 28.6011 46.1968 28.605C46.1384 28.611 46.085 28.6446 46.0478 28.7002L44.2334 31.3845C44.1573 31.4959 44.1669 31.6623 44.2549 31.7587C46.3087 34.0378 48.8346 35.2417 51.5605 35.2417C55.4166 35.2417 57.9084 32.6226 57.9084 28.5689C57.9153 25.1468 56.2672 23.2521 52.2307 22.0314L52.2238 22.0277V22.0277ZM66.6323 17.9646C64.9609 17.9646 63.5899 18.7829 62.4594 20.4597V18.5723C62.4594 18.4233 62.3622 18.3019 62.2426 18.3019H59.2749C59.1551 18.3019 59.0581 18.4233 59.0581 18.5723V39.5438C59.0581 39.6928 59.155 39.8142 59.2749 39.8142H62.2426C62.3622 39.8142 62.4594 39.6928 62.4594 39.5438V32.924C63.5902 34.5014 64.9613 35.2721 66.6323 35.2721C69.7379 35.2721 72.8819 32.3003 72.8819 26.6194C72.8865 20.937 69.7416 17.9643 66.6357 17.9643L66.6323 17.9646ZM69.431 26.6194C69.431 29.5123 67.9975 31.531 65.9449 31.531C63.9156 31.531 62.3849 29.4205 62.3849 26.6194C62.3849 23.8185 63.9156 21.7077 65.9449 21.7077C67.9643 21.7074 69.4313 23.7726 69.4313 26.6191L69.431 26.6194V26.6194ZM80.9399 17.9646C76.9404 17.9646 73.807 21.7929 73.807 26.6812C73.807 31.5162 76.9188 35.3043 80.8909 35.3043C84.9047 35.3043 88.0477 31.4888 88.0477 26.6193C88.0477 21.7667 84.9258 17.9651 80.9397 17.9651L80.9399 17.9646V17.9646ZM80.9399 31.5598C78.8126 31.5598 77.2088 29.435 77.2088 26.6179C77.2088 23.7888 78.7571 21.7359 80.8909 21.7359C83.032 21.7359 84.6466 23.8606 84.6466 26.6797C84.6466 29.5083 83.0879 31.5598 80.9402 31.5598H80.9399V31.5598ZM96.5885 18.302H93.3229V14.1516C93.3229 14.0029 93.2261 13.8815 93.1063 13.8815H90.1391C90.019 13.8815 89.9215 14.0029 89.9215 14.1516V18.302H88.4947C88.3752 18.302 88.2785 18.4233 88.2785 18.5723V21.7428C88.2785 21.8915 88.3752 22.0132 88.4947 22.0132H89.9215V30.2166C89.9215 33.5318 91.2489 35.2126 93.8668 35.2126C94.9313 35.2126 95.8144 34.9393 96.6467 34.3527C96.7143 34.3056 96.7563 34.2151 96.7563 34.1187V31.0996C96.7563 31.0064 96.7173 30.9184 96.6531 30.8697C96.5885 30.8192 96.508 30.8167 96.4418 30.8574C95.8701 31.215 95.3175 31.38 94.6997 31.38C93.7476 31.38 93.3229 30.8426 93.3229 29.6382V22.0146H96.5885C96.7084 22.0146 96.8049 21.8932 96.8049 21.7442V18.5741C96.8095 18.4251 96.7132 18.3037 96.5917 18.3037L96.5885 18.302V18.302ZM107.967 18.3182V17.8084C107.967 16.3088 108.429 15.6401 109.467 15.6401C110.085 15.6401 110.582 15.7928 111.139 16.0236C111.207 16.0504 111.279 16.037 111.335 15.986C111.392 15.935 111.424 15.8532 111.424 15.7666V12.658C111.424 12.5392 111.363 12.4341 111.271 12.399C110.683 12.1816 109.93 11.9585 108.804 11.9585C106.063 11.9585 104.614 13.8772 104.614 17.5053V18.286H103.189C103.069 18.286 102.971 18.4073 102.971 18.5561V21.7428C102.971 21.8915 103.069 22.0131 103.189 22.0131H104.614V34.6666C104.614 34.8156 104.711 34.937 104.831 34.937H107.798C107.918 34.937 108.016 34.8156 108.016 34.6666V22.014H110.787L115.031 34.6644C114.549 35.9936 114.075 36.258 113.429 36.258C112.906 36.258 112.355 36.0639 111.792 35.681C111.739 35.6448 111.676 35.6388 111.619 35.6608C111.563 35.6856 111.515 35.738 111.491 35.8064L110.485 38.5494C110.437 38.679 110.478 38.8312 110.579 38.8984C111.629 39.6053 112.577 39.9071 113.748 39.9071C115.939 39.9071 117.151 38.6383 118.218 35.2248L123.367 18.6874C123.393 18.6042 123.385 18.5102 123.344 18.4364C123.303 18.3632 123.237 18.319 123.165 18.319H120.076C119.983 18.319 119.9 18.3923 119.87 18.5002L116.705 29.7373L113.239 18.4928C113.207 18.3883 113.126 18.319 113.036 18.319H107.966L107.967 18.3182V18.3182ZM101.37 18.302H98.4023C98.2824 18.302 98.1848 18.4233 98.1848 18.5723V34.6666C98.1848 34.8157 98.2824 34.937 98.4023 34.937H101.37C101.49 34.937 101.587 34.8157 101.587 34.6666V18.5735C101.588 18.5379 101.582 18.5027 101.571 18.4698C101.56 18.437 101.544 18.4071 101.524 18.382C101.504 18.3569 101.48 18.337 101.453 18.3234C101.427 18.3099 101.398 18.303 101.37 18.3031L101.37 18.302ZM99.903 10.9738C98.7273 10.9738 97.7733 12.1568 97.7733 13.6183C97.7733 15.0805 98.7275 16.265 99.903 16.265C101.078 16.265 102.031 15.0805 102.031 13.6183C102.031 12.1571 101.078 10.9738 99.9041 10.9738H99.903V10.9738ZM125.901 23.4766C124.726 23.4766 123.812 22.3041 123.812 20.8803C123.812 19.4565 124.738 18.2706 125.912 18.2706C127.086 18.2706 128 19.4428 128 20.8655C128 22.2893 127.074 23.4766 125.9 23.4766H125.901V23.4766ZM125.912 18.5287C124.842 18.5287 124.033 19.5858 124.033 20.8803C124.033 22.1742 124.837 23.217 125.901 23.217C126.971 23.217 127.781 22.1608 127.781 20.8655C127.781 19.5716 126.977 18.5287 125.913 18.5287H125.912V18.5287ZM126.375 21.1324L126.966 22.1605H126.468L125.936 21.2174H125.479V22.1605H125.062V19.4354H126.039C126.549 19.4354 126.884 19.7594 126.884 20.3047C126.886 20.7515 126.677 21.0245 126.377 21.1324H126.375V21.1324ZM126.022 19.903H125.478V20.7649H126.022C126.293 20.7649 126.456 20.5999 126.456 20.3335C126.456 20.0531 126.293 19.903 126.022 19.903H126.022V19.903Z" fill="#2EBD59"/>
</svg>
