<svg width="284" height="110" viewBox="0 0 284 110" fill="none" xmlns="http://www.w3.org/2000/svg">
<path d="M279.765 109.31C280.302 109.44 280.842 109.11 280.972 108.573L283.084 99.8242C283.213 99.2873 282.883 98.747 282.346 98.6174C281.81 98.4878 281.269 98.818 281.14 99.3549L279.263 107.132L271.486 105.254C270.949 105.125 270.409 105.455 270.279 105.992C270.15 106.529 270.48 107.069 271.017 107.199L279.765 109.31ZM280.853 107.817C280.512 107.258 280.166 106.697 279.817 106.135L278.118 107.189C278.464 107.748 278.807 108.304 279.147 108.86L280.853 107.817ZM277.682 102.746C276.962 101.62 276.228 100.49 275.481 99.3563L273.811 100.457C274.553 101.583 275.282 102.706 275.997 103.823L277.682 102.746ZM273.264 96.0398C272.513 94.9312 271.749 93.8197 270.973 92.7062L269.332 93.85C270.103 94.9563 270.862 96.0605 271.609 97.1619L273.264 96.0398ZM268.669 89.4468C267.893 88.363 267.105 87.2781 266.306 86.1927L264.695 87.3782C265.489 88.4567 266.272 89.5347 267.043 90.6115L268.669 89.4468ZM263.902 82.97C263.101 81.9101 262.289 80.8503 261.467 79.7915L259.887 81.0181C260.704 82.0701 261.51 83.123 262.307 84.1762L263.902 82.97ZM258.97 76.6184C258.142 75.5806 257.305 74.5443 256.458 73.5101L254.91 74.7773C255.752 75.8047 256.584 76.8343 257.406 77.8654L258.97 76.6184ZM253.89 70.4172C253.03 69.3946 252.161 68.3748 251.282 67.3584L249.769 68.6663C250.642 69.6759 251.505 70.6889 252.36 71.7047L253.89 70.4172ZM248.64 64.3434C247.75 63.3422 246.852 62.3448 245.945 61.352L244.469 62.7009C245.369 63.6868 246.261 64.6773 247.145 65.6717L248.64 64.3434ZM243.22 58.4105C242.305 57.4361 241.381 56.4667 240.449 55.503L239.011 56.8934C239.936 57.8501 240.854 58.8125 241.763 59.78L243.22 58.4105ZM237.632 52.6331C236.689 51.6859 235.737 50.7448 234.778 49.8105L233.383 51.2432C234.335 52.1703 235.279 53.1043 236.215 54.0445L237.632 52.6331ZM231.878 47.0285C230.904 46.109 229.923 45.1968 228.934 44.2925L227.584 45.7684C228.565 46.6654 229.539 47.5703 230.505 48.4827L231.878 47.0285ZM225.947 41.6051C224.944 40.7175 223.933 39.8384 222.916 38.9684L221.616 40.4885C222.625 41.351 223.627 42.2227 224.622 43.1029L225.947 41.6051ZM219.835 36.3806C218.802 35.5275 217.761 34.6842 216.713 33.8513L215.469 35.4167C216.507 36.242 217.538 37.0777 218.563 37.9232L219.835 36.3806ZM213.543 31.378C212.476 30.562 211.403 29.7571 210.323 28.9638L209.139 30.5756C210.208 31.3611 211.271 32.1583 212.328 32.9665L213.543 31.378ZM207.064 26.6195C205.964 25.8449 204.857 25.0828 203.744 24.3337L202.628 25.9928C203.729 26.734 204.824 27.4882 205.913 28.2548L207.064 26.6195ZM200.384 22.1239C199.254 21.3987 198.118 20.6873 196.976 19.9903L195.934 21.6973C197.063 22.3864 198.186 23.0898 199.303 23.807L200.384 22.1239ZM193.51 17.9297C192.349 17.2579 191.181 16.6012 190.008 15.9605L189.05 17.7157C190.208 18.3485 191.361 18.9971 192.509 19.6609L193.51 17.9297ZM186.444 14.0719C185.247 13.4574 184.045 12.8597 182.837 12.2796L181.971 14.0825C183.163 14.6548 184.349 15.2445 185.53 15.8511L186.444 14.0719ZM179.187 10.5883C177.955 10.0383 176.718 9.5069 175.476 8.99474L174.714 10.8437C175.938 11.3484 177.157 11.8722 178.371 12.4145L179.187 10.5883ZM171.734 7.51669C170.473 7.04047 169.207 6.58445 167.935 6.14935L167.288 8.04159C168.539 8.46981 169.786 8.91875 171.028 9.38774L171.734 7.51669ZM164.099 4.90494C162.813 4.5109 161.522 4.13866 160.226 3.78893L159.705 5.71981C160.978 6.0636 162.248 6.42963 163.513 6.81721L164.099 4.90494ZM156.308 2.8039C154.998 2.49876 153.683 2.21706 152.364 1.95954L151.981 3.92248C153.276 4.17534 154.567 4.452 155.855 4.75179L156.308 2.8039ZM148.388 1.25913C147.058 1.05033 145.724 0.866529 144.386 0.708455L144.151 2.69464C145.464 2.84969 146.773 3.03002 148.078 3.23493L148.388 1.25913ZM140.368 0.31265C139.028 0.207097 137.684 0.127797 136.338 0.075467L136.26 2.07396C137.58 2.12525 138.897 2.20299 140.211 2.30647L140.368 0.31265ZM132.287 8.86111e-05C130.949 0.00238506 129.607 0.0317735 128.262 0.0889558L128.347 2.08715C129.664 2.03113 130.979 2.00233 132.291 2.00009L132.287 8.86111e-05ZM124.223 0.344289C122.886 0.456578 121.547 0.596791 120.205 0.765584L120.454 2.74994C121.769 2.58461 123.081 2.44727 124.39 2.33727L124.223 0.344289ZM116.217 1.35085C114.886 1.57431 113.553 1.82636 112.218 2.10763L112.63 4.06468C113.938 3.78909 115.244 3.54216 116.549 3.32325L116.217 1.35085ZM108.315 3.01243C107.016 3.34125 105.715 3.69818 104.413 4.08379L104.98 6.00148C106.257 5.62343 107.532 5.27357 108.806 4.9513L108.315 3.01243ZM100.548 5.31167C99.2937 5.73744 98.0383 6.19024 96.782 6.67057L97.4963 8.53868C98.7291 8.06734 99.9606 7.62314 101.191 7.20553L100.548 5.31167ZM93.0106 8.19467C91.7875 8.71571 90.5638 9.26324 89.3395 9.83774L90.1891 11.6483C91.3918 11.0839 92.5937 10.5462 93.7945 10.0347L93.0106 8.19467ZM85.739 11.6047C84.5384 12.2199 83.3374 12.8613 82.1362 13.5296L83.1084 15.2773C84.2899 14.6201 85.4709 13.9893 86.651 13.3847L85.739 11.6047ZM78.6772 15.5277C77.5415 16.2081 76.4057 16.9129 75.2699 17.6422L76.3506 19.3251C77.4692 18.6068 78.5874 17.913 79.7052 17.2433L78.6772 15.5277ZM71.8627 19.9045C70.7768 20.6493 69.6911 21.417 68.6055 22.2078L69.7831 23.8244C70.8536 23.0446 71.9239 22.2878 72.994 21.5539L71.8627 19.9045ZM65.408 24.605C64.3424 25.4266 63.2771 26.2708 62.2121 27.138L63.475 28.6888C64.5264 27.8327 65.5778 26.9995 66.6292 26.1888L65.408 24.605ZM59.1246 29.7176C58.1304 30.5695 57.1366 31.4416 56.1433 32.3343L57.4802 33.8219C58.4619 32.9396 59.4438 32.0778 60.4259 31.2364L59.1246 29.7176ZM53.1649 35.0741C52.1771 36.0038 51.1898 36.9541 50.2031 37.9252L51.6061 39.3506C52.5823 38.3898 53.5588 37.4498 54.5356 36.5305L53.1649 35.0741ZM47.4366 40.7046C46.515 41.6494 45.594 42.6127 44.6736 43.5945L46.1327 44.9623C47.0442 43.99 47.9561 43.0363 48.8683 42.1011L47.4366 40.7046ZM41.9143 46.5962C41.0195 47.5885 40.1254 48.5987 39.2319 49.627L40.7416 50.9388C41.6272 49.9197 42.5132 48.9186 43.3997 47.9355L41.9143 46.5962ZM36.6768 52.6193C35.8257 53.6332 34.9754 54.6638 34.1257 55.711L35.6788 56.9711C36.5216 55.9324 37.3649 54.9104 38.2087 53.9051L36.6768 52.6193ZM31.579 58.9032C30.7549 59.9534 29.9316 61.0195 29.109 62.1018L30.7013 63.312C31.5177 62.2378 32.3348 61.1798 33.1524 60.1378L31.579 58.9032ZM26.7548 65.2461C25.9708 66.3091 25.1875 67.3868 24.405 68.4794L26.031 69.6439C26.8082 68.5588 27.586 67.4886 28.3644 66.4334L26.7548 65.2461ZM22.0598 71.8024C21.2848 72.9165 20.5106 74.0454 19.7373 75.1893L21.3942 76.3095C22.1626 75.1728 22.9318 74.0512 23.7016 72.9445L22.0598 71.8024ZM17.571 78.4361C16.8497 79.5315 16.1291 80.6401 15.4093 81.762L17.0926 82.842C17.8082 81.7267 18.5245 80.6248 19.2414 79.5361L17.571 78.4361ZM13.2522 85.1676C12.534 86.3161 11.8166 87.4781 11.1 88.6536L12.8077 89.6946C13.5204 88.5256 14.2338 87.37 14.948 86.228L13.2522 85.1676ZM9.0274 92.095C8.36404 93.2099 7.70138 94.3365 7.03952 95.4749L8.76855 96.4802C9.42706 95.3475 10.0863 94.2267 10.7462 93.1176L9.0274 92.095ZM5.05621 98.9256C4.3959 100.088 3.73635 101.262 3.07763 102.448L4.82601 103.419C5.48162 102.238 6.138 101.07 6.7951 99.9137L5.05621 98.9256ZM1.10388 106.041C0.775355 106.646 0.447046 107.254 0.118952 107.865L1.88092 108.811C2.20758 108.203 2.53439 107.598 2.86141 106.996L1.10388 106.041Z" fill="#3B71FE"/>
</svg>
