<svg width="110" height="463" viewBox="0 0 110 463" fill="none" xmlns="http://www.w3.org/2000/svg">
<path d="M100.057 463C100.609 463.001 101.058 462.554 101.059 462.002L101.074 453.002C101.074 452.449 100.627 452.001 100.075 452C99.5229 451.999 99.0745 452.446 99.0736 452.998L99.0604 460.998L91.0604 460.985C90.5081 460.984 90.0596 461.431 90.0587 461.983C90.0578 462.536 90.5048 462.984 91.0571 462.985L100.057 463ZM100.767 461.294C99.793 460.317 98.8274 459.339 97.8701 458.361L96.4408 459.76C97.4023 460.743 98.3722 461.724 99.3504 462.706L100.767 461.294ZM92.2261 452.488C90.3779 450.529 88.5626 448.569 86.7798 446.607L85.2996 447.952C87.0909 449.923 88.9146 451.893 90.7714 453.861L92.2261 452.488ZM81.3928 440.562C79.5958 438.506 77.834 436.448 76.1069 434.389L74.5746 435.674C76.3104 437.743 78.081 439.811 79.8868 441.878L81.3928 440.562ZM71.0295 428.21C69.3154 426.079 67.638 423.948 65.9967 421.816L64.412 423.036C66.062 425.179 67.7483 427.322 69.4712 429.463L71.0295 428.21ZM61.1308 415.35C59.5408 413.188 57.9874 411.026 56.4702 408.863L54.8329 410.012C56.3588 412.187 57.9208 414.361 59.5196 416.535L61.1308 415.35ZM51.8556 402.119C50.356 399.871 48.8948 397.623 47.4713 395.375L45.7816 396.445C47.2136 398.706 48.6835 400.968 50.1918 403.229L51.8556 402.119ZM43.2354 388.502C41.8352 386.166 40.4751 383.83 39.1545 381.495L37.4136 382.48C38.7426 384.829 40.1111 387.18 41.52 389.53L43.2354 388.502ZM35.3091 374.491C34.0216 372.073 32.7758 369.656 31.571 367.241L29.7813 368.133C30.9941 370.565 32.248 372.997 33.5438 375.431L35.3091 374.491ZM28.0788 359.999C26.9321 357.537 25.8274 355.077 24.7637 352.619L22.9282 353.413C23.9991 355.888 25.1114 358.365 26.2658 360.843L28.0788 359.999ZM21.6586 345.16C20.6562 342.654 19.6959 340.15 18.7768 337.649L16.8996 338.339C17.8252 340.857 18.7923 343.379 19.8017 345.903L21.6586 345.16ZM16.0905 330C15.2362 327.45 14.424 324.904 13.6532 322.361L11.7392 322.941C12.5156 325.502 13.3336 328.067 14.1941 330.636L16.0905 330ZM11.4118 314.552C10.7074 311.954 10.0455 309.359 9.42505 306.77L7.4801 307.236C8.10513 309.844 8.77194 312.458 9.48147 315.075L11.4118 314.552ZM7.65443 298.858C7.10501 296.218 6.59802 293.583 6.13242 290.954L4.16306 291.303C4.63213 293.952 5.14289 296.606 5.69638 299.266L7.65443 298.858ZM4.84168 282.968C4.45119 280.297 4.10272 277.633 3.7952 274.976L1.80846 275.206C2.11827 277.883 2.46933 280.567 2.86272 283.257L4.84168 282.968ZM2.98671 266.936C2.75683 264.246 2.56821 261.563 2.41972 258.889L0.422796 259C0.57238 261.694 0.762388 264.396 0.993977 267.106L2.98671 266.936ZM2.09164 250.82C2.02187 248.121 1.99229 245.43 2.0017 242.749L0.00171304 242.742C-0.00776756 245.443 0.022025 248.152 0.0923056 250.871L2.09164 250.82ZM2.14763 234.676C2.23558 231.978 2.36235 229.29 2.5267 226.612L0.530453 226.49C0.364944 229.186 0.237269 231.893 0.148695 234.611L2.14763 234.676ZM3.13596 218.559C3.37763 215.871 3.65651 213.194 3.97132 210.53L1.98513 210.295C1.66816 212.978 1.38735 215.673 1.14399 218.38L3.13596 218.559ZM5.02958 202.521C5.41974 199.851 5.84531 197.194 6.30494 194.55L4.3345 194.208C3.87181 196.869 3.44339 199.544 3.05059 202.232L5.02958 202.521ZM7.79509 186.608C8.32764 183.963 8.89362 181.332 9.49163 178.717L7.54194 178.271C6.9401 180.903 6.37047 183.551 5.83444 186.213L7.79509 186.608ZM11.3948 170.859C12.0631 168.246 12.7627 165.648 13.4921 163.068L11.5675 162.524C10.8336 165.12 10.1296 167.734 9.45718 170.363L11.3948 170.859ZM15.7887 155.31C16.5857 152.734 17.4118 150.176 18.2655 147.636L16.3697 146.998C15.5109 149.554 14.6799 152.127 13.8781 154.719L15.7887 155.31ZM20.936 139.991C21.8547 137.458 22.8002 134.944 23.7708 132.449L21.907 131.724C20.9308 134.233 19.9799 136.761 19.0558 139.309L20.936 139.991ZM26.7967 124.93C27.8325 122.438 28.8927 119.967 29.9755 117.518L28.1464 116.709C27.0575 119.172 25.9915 121.656 24.95 124.162L26.7967 124.93ZM33.3326 110.148C34.4802 107.7 35.6497 105.275 36.8394 102.875L35.0474 101.987C33.8514 104.4 32.6756 106.838 31.5218 109.299L33.3326 110.148ZM40.5078 95.6679C41.763 93.2657 43.0374 90.8893 44.3293 88.5393L42.5767 87.5758C41.2781 89.938 39.997 92.3269 38.7352 94.7416L40.5078 95.6679ZM48.2892 81.5113C49.6488 79.1561 51.0247 76.8296 52.4152 74.5327L50.7043 73.497C49.3067 75.8057 47.9237 78.1441 46.5571 80.5114L48.2892 81.5113ZM56.6548 67.689C58.1141 65.3865 59.5866 63.1162 61.0703 60.879L59.4035 59.7737C57.9123 62.0223 56.4322 64.3041 54.9655 66.6183L56.6548 67.689ZM65.6037 54.1935C67.1504 51.9623 68.7067 49.7671 70.27 47.6088L68.6503 46.4356C67.0789 48.6049 65.5147 50.8114 63.96 53.054L65.6037 54.1935ZM75.0976 41.0892C76.736 38.9245 78.3796 36.801 80.0256 34.7196L78.4569 33.479C76.8021 35.5715 75.1499 37.7062 73.5029 39.8821L75.0976 41.0892ZM85.1165 28.424C86.8626 26.3125 88.6084 24.2495 90.3509 22.2365L88.8387 20.9276C87.0864 22.952 85.3308 25.0264 83.5752 27.1494L85.1165 28.424ZM95.6901 16.2108C97.5316 14.181 99.3656 12.2093 101.188 10.297L99.7408 8.91705C97.9065 10.8413 96.0612 12.8251 94.2088 14.8669L95.6901 16.2108ZM106.865 4.49567C107.813 3.55285 108.757 2.62707 109.695 1.71859L108.305 0.281407C107.359 1.19635 106.409 2.12855 105.455 3.07779L106.865 4.49567Z" fill="#3B71FE"/>
</svg>
