<svg width="98" height="19" viewBox="0 0 98 19" fill="none" xmlns="http://www.w3.org/2000/svg">
<path d="M11.375 18L4.225 8.8L11.15 0.349999H16L8.2 9.525V7.925L16.25 18H11.375ZM0.7 18V0.349999H4.625V18H0.7ZM20.8875 10.725V7.825H24.6125C25.3958 7.825 25.9958 7.625 26.4125 7.225C26.8458 6.825 27.0625 6.28333 27.0625 5.6C27.0625 4.96667 26.8542 4.44167 26.4375 4.025C26.0208 3.60833 25.4208 3.4 24.6375 3.4H20.8875V0.349999H25.0875C26.2542 0.349999 27.2792 0.574999 28.1625 1.025C29.0458 1.45833 29.7375 2.06667 30.2375 2.85C30.7375 3.63333 30.9875 4.53333 30.9875 5.55C30.9875 6.58333 30.7375 7.49167 30.2375 8.275C29.7375 9.04167 29.0375 9.64167 28.1375 10.075C27.2375 10.5083 26.1792 10.725 24.9625 10.725H20.8875ZM17.8875 18V0.349999H21.8125V18H17.8875ZM27.4875 18L21.9875 10.4L25.5875 9.425L32.1375 18H27.4875ZM38.4248 11.425L31.6248 0.349999H36.1748L41.3998 9.3H38.4748L43.6998 0.349999H48.1498L41.2998 11.425H38.4248ZM37.9498 18V9.625H41.8748V18H37.9498ZM52.5525 11.575V8.525H56.3525C56.8359 8.525 57.2775 8.425 57.6775 8.225C58.0775 8.025 58.3942 7.73333 58.6275 7.35C58.8609 6.96667 58.9775 6.5 58.9775 5.95C58.9775 5.41667 58.8609 4.95833 58.6275 4.575C58.3942 4.19167 58.0775 3.9 57.6775 3.7C57.2775 3.5 56.8359 3.4 56.3525 3.4H52.5525V0.349999H56.9275C58.0442 0.349999 59.0525 0.574999 59.9525 1.025C60.8525 1.475 61.5609 2.125 62.0775 2.975C62.6109 3.80833 62.8775 4.8 62.8775 5.95C62.8775 7.1 62.6109 8.1 62.0775 8.95C61.5609 9.78333 60.8525 10.4333 59.9525 10.9C59.0525 11.35 58.0442 11.575 56.9275 11.575H52.5525ZM49.5525 18V0.349999H53.4775V18H49.5525ZM69.2584 18V0.599999H73.1834V18H69.2584ZM63.7334 3.775V0.349999H78.7084V3.775H63.7334ZM88.3975 18.3C87.0641 18.3 85.8308 18.0667 84.6975 17.6C83.5808 17.1333 82.5975 16.4833 81.7475 15.65C80.8975 14.8167 80.2391 13.85 79.7725 12.75C79.3058 11.6333 79.0725 10.4333 79.0725 9.15C79.0725 7.85 79.3058 6.65 79.7725 5.55C80.2391 4.45 80.8891 3.49167 81.7225 2.675C82.5558 1.84167 83.5308 1.2 84.6475 0.749999C85.7808 0.283332 87.0141 0.0499986 88.3475 0.0499986C89.6641 0.0499986 90.8808 0.283332 91.9975 0.749999C93.1308 1.2 94.1141 1.84167 94.9475 2.675C95.7975 3.49167 96.4558 4.45833 96.9225 5.575C97.3891 6.675 97.6225 7.875 97.6225 9.175C97.6225 10.4583 97.3891 11.6583 96.9225 12.775C96.4558 13.875 95.8058 14.8417 94.9725 15.675C94.1391 16.4917 93.1558 17.1333 92.0225 17.6C90.9058 18.0667 89.6975 18.3 88.3975 18.3ZM88.3475 14.725C89.3975 14.725 90.3141 14.4917 91.0975 14.025C91.8975 13.5583 92.5141 12.9083 92.9475 12.075C93.3808 11.225 93.5975 10.25 93.5975 9.15C93.5975 8.31667 93.4725 7.56667 93.2225 6.9C92.9725 6.21667 92.6141 5.63333 92.1475 5.15C91.6808 4.65 91.1225 4.275 90.4725 4.025C89.8391 3.75833 89.1308 3.625 88.3475 3.625C87.2975 3.625 86.3725 3.85833 85.5725 4.325C84.7891 4.775 84.1808 5.41667 83.7475 6.25C83.3141 7.06667 83.0975 8.03333 83.0975 9.15C83.0975 9.98333 83.2225 10.7417 83.4725 11.425C83.7225 12.1083 84.0725 12.7 84.5225 13.2C84.9891 13.6833 85.5475 14.0583 86.1975 14.325C86.8475 14.5917 87.5641 14.725 88.3475 14.725Z" fill="white"/>
</svg>
