<svg width="267" height="268" viewBox="0 0 267 268" fill="none" xmlns="http://www.w3.org/2000/svg">
<rect y="0.510254" width="4.17188" height="4.17188" rx="2.08594" fill="#3B71FE"/>
<rect x="29.2031" y="0.510254" width="4.17188" height="4.17188" rx="2.08594" fill="#3B71FE"/>
<rect x="58.4062" y="0.510254" width="4.17188" height="4.17188" rx="2.08594" fill="#3B71FE"/>
<rect x="87.6094" y="0.510254" width="4.17188" height="4.17188" rx="2.08594" fill="#3B71FE"/>
<rect x="116.812" y="0.510254" width="4.17188" height="4.17188" rx="2.08594" fill="#3B71FE"/>
<rect x="146.016" y="0.510254" width="4.17188" height="4.17188" rx="2.08594" fill="#3B71FE"/>
<rect x="175.219" y="0.510254" width="4.17188" height="4.17188" rx="2.08594" fill="#3B71FE"/>
<rect x="204.422" y="0.510254" width="4.17188" height="4.17188" rx="2.08594" fill="#3B71FE"/>
<rect x="233.625" y="0.510254" width="4.17188" height="4.17188" rx="2.08594" fill="#3B71FE"/>
<rect x="262.828" y="0.510254" width="4.17188" height="4.17188" rx="2.08594" fill="#3B71FE"/>
<rect y="29.7134" width="4.17188" height="4.17188" rx="2.08594" fill="#3B71FE"/>
<rect x="29.2031" y="29.7134" width="4.17188" height="4.17188" rx="2.08594" fill="#3B71FE"/>
<rect x="58.4062" y="29.7134" width="4.17188" height="4.17188" rx="2.08594" fill="#3B71FE"/>
<rect x="87.6094" y="29.7134" width="4.17188" height="4.17188" rx="2.08594" fill="#3B71FE"/>
<rect x="116.812" y="29.7134" width="4.17188" height="4.17188" rx="2.08594" fill="#3B71FE"/>
<rect x="146.016" y="29.7134" width="4.17188" height="4.17188" rx="2.08594" fill="#3B71FE"/>
<rect x="175.219" y="29.7134" width="4.17188" height="4.17188" rx="2.08594" fill="#3B71FE"/>
<rect x="204.422" y="29.7134" width="4.17188" height="4.17188" rx="2.08594" fill="#3B71FE"/>
<rect x="233.625" y="29.7134" width="4.17188" height="4.17188" rx="2.08594" fill="#3B71FE"/>
<rect x="262.828" y="29.7134" width="4.17188" height="4.17188" rx="2.08594" fill="#3B71FE"/>
<rect y="58.9165" width="4.17188" height="4.17188" rx="2.08594" fill="#3B71FE"/>
<rect x="29.2031" y="58.9165" width="4.17188" height="4.17188" rx="2.08594" fill="#3B71FE"/>
<rect x="58.4062" y="58.9165" width="4.17188" height="4.17188" rx="2.08594" fill="#3B71FE"/>
<rect x="87.6094" y="58.9165" width="4.17188" height="4.17188" rx="2.08594" fill="#3B71FE"/>
<rect x="116.812" y="58.9165" width="4.17188" height="4.17188" rx="2.08594" fill="#3B71FE"/>
<rect x="146.016" y="58.9165" width="4.17188" height="4.17188" rx="2.08594" fill="#3B71FE"/>
<rect x="175.219" y="58.9165" width="4.17188" height="4.17188" rx="2.08594" fill="#3B71FE"/>
<rect x="204.422" y="58.9165" width="4.17188" height="4.17188" rx="2.08594" fill="#3B71FE"/>
<rect x="233.625" y="58.9165" width="4.17188" height="4.17188" rx="2.08594" fill="#3B71FE"/>
<rect x="262.828" y="58.9165" width="4.17188" height="4.17188" rx="2.08594" fill="#3B71FE"/>
<rect y="88.1196" width="4.17188" height="4.17188" rx="2.08594" fill="#3B71FE"/>
<rect x="29.2031" y="88.1196" width="4.17188" height="4.17188" rx="2.08594" fill="#3B71FE"/>
<rect x="58.4062" y="88.1196" width="4.17188" height="4.17188" rx="2.08594" fill="#3B71FE"/>
<rect x="87.6094" y="88.1196" width="4.17188" height="4.17188" rx="2.08594" fill="#3B71FE"/>
<rect x="116.812" y="88.1196" width="4.17188" height="4.17188" rx="2.08594" fill="#3B71FE"/>
<rect x="146.016" y="88.1196" width="4.17188" height="4.17188" rx="2.08594" fill="#3B71FE"/>
<rect x="175.219" y="88.1196" width="4.17188" height="4.17188" rx="2.08594" fill="#3B71FE"/>
<rect x="204.422" y="88.1196" width="4.17188" height="4.17188" rx="2.08594" fill="#3B71FE"/>
<rect x="233.625" y="88.1196" width="4.17188" height="4.17188" rx="2.08594" fill="#3B71FE"/>
<rect x="262.828" y="88.1196" width="4.17188" height="4.17188" rx="2.08594" fill="#3B71FE"/>
<rect y="117.323" width="4.17188" height="4.17188" rx="2.08594" fill="#3B71FE"/>
<rect x="29.2031" y="117.323" width="4.17188" height="4.17188" rx="2.08594" fill="#3B71FE"/>
<rect x="58.4062" y="117.323" width="4.17188" height="4.17188" rx="2.08594" fill="#3B71FE"/>
<rect x="87.6094" y="117.323" width="4.17188" height="4.17188" rx="2.08594" fill="#3B71FE"/>
<rect x="116.812" y="117.323" width="4.17188" height="4.17188" rx="2.08594" fill="#3B71FE"/>
<rect x="146.016" y="117.323" width="4.17188" height="4.17188" rx="2.08594" fill="#3B71FE"/>
<rect x="175.219" y="117.323" width="4.17188" height="4.17188" rx="2.08594" fill="#3B71FE"/>
<rect x="204.422" y="117.323" width="4.17188" height="4.17188" rx="2.08594" fill="#3B71FE"/>
<rect x="233.625" y="117.323" width="4.17188" height="4.17188" rx="2.08594" fill="#3B71FE"/>
<rect x="262.828" y="117.323" width="4.17188" height="4.17188" rx="2.08594" fill="#3B71FE"/>
<rect y="146.526" width="4.17188" height="4.17188" rx="2.08594" fill="#3B71FE"/>
<rect x="29.2031" y="146.526" width="4.17188" height="4.17188" rx="2.08594" fill="#3B71FE"/>
<rect x="58.4062" y="146.526" width="4.17188" height="4.17188" rx="2.08594" fill="#3B71FE"/>
<rect x="87.6094" y="146.526" width="4.17188" height="4.17188" rx="2.08594" fill="#3B71FE"/>
<rect x="116.812" y="146.526" width="4.17188" height="4.17188" rx="2.08594" fill="#3B71FE"/>
<rect x="146.016" y="146.526" width="4.17188" height="4.17188" rx="2.08594" fill="#3B71FE"/>
<rect x="175.219" y="146.526" width="4.17188" height="4.17188" rx="2.08594" fill="#3B71FE"/>
<rect x="204.422" y="146.526" width="4.17188" height="4.17188" rx="2.08594" fill="#3B71FE"/>
<rect x="233.625" y="146.526" width="4.17188" height="4.17188" rx="2.08594" fill="#3B71FE"/>
<rect x="262.828" y="146.526" width="4.17188" height="4.17188" rx="2.08594" fill="#3B71FE"/>
<rect y="175.729" width="4.17188" height="4.17188" rx="2.08594" fill="#3B71FE"/>
<rect y="204.932" width="4.17188" height="4.17188" rx="2.08594" fill="#3B71FE"/>
<rect y="234.135" width="4.17188" height="4.17188" rx="2.08594" fill="#3B71FE"/>
<rect y="263.338" width="4.17188" height="4.17188" rx="2.08594" fill="#3B71FE"/>
<rect x="29.2031" y="175.729" width="4.17188" height="4.17188" rx="2.08594" fill="#3B71FE"/>
<rect x="29.2031" y="204.932" width="4.17188" height="4.17188" rx="2.08594" fill="#3B71FE"/>
<rect x="29.2031" y="234.135" width="4.17188" height="4.17188" rx="2.08594" fill="#3B71FE"/>
<rect x="29.2031" y="263.338" width="4.17188" height="4.17188" rx="2.08594" fill="#3B71FE"/>
<rect x="58.4062" y="175.729" width="4.17188" height="4.17188" rx="2.08594" fill="#3B71FE"/>
<rect x="58.4062" y="204.932" width="4.17188" height="4.17188" rx="2.08594" fill="#3B71FE"/>
<rect x="58.4062" y="234.135" width="4.17188" height="4.17188" rx="2.08594" fill="#3B71FE"/>
<rect x="58.4062" y="263.338" width="4.17188" height="4.17188" rx="2.08594" fill="#3B71FE"/>
<rect x="87.6094" y="175.729" width="4.17188" height="4.17188" rx="2.08594" fill="#3B71FE"/>
<rect x="87.6094" y="204.932" width="4.17188" height="4.17188" rx="2.08594" fill="#3B71FE"/>
<rect x="87.6094" y="234.135" width="4.17188" height="4.17188" rx="2.08594" fill="#3B71FE"/>
<rect x="87.6094" y="263.338" width="4.17188" height="4.17188" rx="2.08594" fill="#3B71FE"/>
<rect x="116.812" y="175.729" width="4.17188" height="4.17188" rx="2.08594" fill="#3B71FE"/>
<rect x="116.812" y="204.932" width="4.17188" height="4.17188" rx="2.08594" fill="#3B71FE"/>
<rect x="116.812" y="234.135" width="4.17188" height="4.17188" rx="2.08594" fill="#3B71FE"/>
<rect x="116.812" y="263.338" width="4.17188" height="4.17188" rx="2.08594" fill="#3B71FE"/>
<rect x="146.016" y="175.729" width="4.17188" height="4.17188" rx="2.08594" fill="#3B71FE"/>
<rect x="146.016" y="204.932" width="4.17188" height="4.17188" rx="2.08594" fill="#3B71FE"/>
<rect x="146.016" y="234.135" width="4.17188" height="4.17188" rx="2.08594" fill="#3B71FE"/>
<rect x="146.016" y="263.338" width="4.17188" height="4.17188" rx="2.08594" fill="#3B71FE"/>
<rect x="175.219" y="175.729" width="4.17188" height="4.17188" rx="2.08594" fill="#3B71FE"/>
<rect x="175.219" y="204.932" width="4.17188" height="4.17188" rx="2.08594" fill="#3B71FE"/>
<rect x="175.219" y="234.135" width="4.17188" height="4.17188" rx="2.08594" fill="#3B71FE"/>
<rect x="175.219" y="263.338" width="4.17188" height="4.17188" rx="2.08594" fill="#3B71FE"/>
<rect x="204.422" y="175.729" width="4.17188" height="4.17188" rx="2.08594" fill="#3B71FE"/>
<rect x="204.422" y="204.932" width="4.17188" height="4.17188" rx="2.08594" fill="#3B71FE"/>
<rect x="204.422" y="234.135" width="4.17188" height="4.17188" rx="2.08594" fill="#3B71FE"/>
<rect x="204.422" y="263.338" width="4.17188" height="4.17188" rx="2.08594" fill="#3B71FE"/>
<rect x="233.625" y="175.729" width="4.17188" height="4.17188" rx="2.08594" fill="#3B71FE"/>
<rect x="233.625" y="204.932" width="4.17188" height="4.17188" rx="2.08594" fill="#3B71FE"/>
<rect x="233.625" y="234.135" width="4.17188" height="4.17188" rx="2.08594" fill="#3B71FE"/>
<rect x="233.625" y="263.338" width="4.17188" height="4.17188" rx="2.08594" fill="#3B71FE"/>
<rect x="262.828" y="175.729" width="4.17188" height="4.17188" rx="2.08594" fill="#3B71FE"/>
<rect x="262.828" y="204.932" width="4.17188" height="4.17188" rx="2.08594" fill="#3B71FE"/>
<rect x="262.828" y="234.135" width="4.17188" height="4.17188" rx="2.08594" fill="#3B71FE"/>
<rect x="262.828" y="263.338" width="4.17188" height="4.17188" rx="2.08594" fill="#3B71FE"/>
</svg>
